<?xml version="1.0" standalone="no"?>
<!DOCTYPE svg PUBLIC "-//W3C//DTD SVG 20010904//EN"
 "http://www.w3.org/TR/2001/REC-SVG-20010904/DTD/svg10.dtd">
<svg version="1.0" xmlns="http://www.w3.org/2000/svg"
 width="100.000000pt" height="100.000000pt" viewBox="0 0 142.000000 147.000000"
 preserveAspectRatio="xMidYMid meet">
<metadata>
Created by potrace 1.15, written by Peter Selinger 2001-2017
</metadata>
<g transform="translate(0.000000,147.000000) scale(0.100000,-0.100000)"
fill="#2e7d32" stroke="none">
<path d="M546 1454 c-125 -28 -279 -107 -345 -178 l-24 -26 516 0 c284 0 517
3 517 8 -1 13 -97 86 -157 120 -143 80 -352 111 -507 76z"/>
<path d="M83 1169 c-17 -5 -43 -23 -57 -40 l-26 -31 0 -365 0 -365 33 -33 c24
-24 46 -35 78 -40 24 -3 307 -5 629 -3 540 3 588 4 613 21 62 40 62 40 65 399
2 204 -1 342 -7 366 -6 21 -25 51 -41 67 l-31 30 -612 2 c-353 1 -625 -3 -644
-8z m1077 -135 c0 -55 59 -114 114 -114 l26 0 0 -183 0 -183 -32 -2 c-60 -5
-105 -50 -110 -110 l-2 -32 -448 0 -448 0 0 29 c0 55 -89 125 -135 107 -13 -5
-15 22 -15 179 l0 185 26 0 c65 0 124 56 124 119 l0 31 450 0 450 0 0 -26z"/>
<path d="M635 1001 c-206 -51 -279 -307 -130 -456 53 -52 115 -77 190 -77 186
-1 312 169 260 348 -13 47 -27 69 -70 111 -73 71 -158 96 -250 74z m85 -110
c0 -12 9 -21 25 -25 16 -4 25 -13 25 -26 0 -18 -5 -20 -40 -14 -44 7 -73 -8
-63 -32 3 -8 28 -26 55 -40 60 -30 79 -64 57 -102 -8 -15 -25 -31 -37 -37 -13
-5 -25 -20 -29 -32 -6 -28 -33 -31 -33 -4 0 13 -9 21 -30 26 -33 7 -44 19 -36
40 4 11 11 12 36 4 44 -16 80 -4 80 25 0 17 -9 27 -31 37 -46 18 -89 58 -89
81 0 30 19 58 46 68 14 6 24 17 24 30 0 13 7 20 20 20 13 0 20 -7 20 -19z"/>
<path d="M255 775 c-43 -42 -29 -105 26 -124 64 -22 124 39 99 100 -23 54 -84
66 -125 24z"/>
<path d="M1036 779 c-43 -34 -35 -99 16 -125 53 -27 108 6 108 66 0 69 -69
103 -124 59z"/>
<path d="M191 204 c7 -9 40 -35 73 -59 140 -99 263 -138 431 -138 119 0 174
10 275 50 74 29 183 97 219 137 l24 26 -517 0 c-473 0 -517 -1 -505 -16z"/>
</g>
</svg>
