<?xml version="1.0" standalone="no"?>
<!DOCTYPE svg PUBLIC "-//W3C//DTD SVG 20010904//EN"
 "http://www.w3.org/TR/2001/REC-SVG-20010904/DTD/svg10.dtd">
<svg version="1.0" xmlns="http://www.w3.org/2000/svg"
 width="100.000000pt" height="100.000000pt" viewBox="0 0 100.000000 100.000000"
 preserveAspectRatio="xMidYMid meet">
<metadata>
Created by potrace 1.15, written by Peter Selinger 2001-2017
</metadata>
<g transform="translate(0.000000,100.000000) scale(0.100000,-0.100000)"
fill="#2e7d32" stroke="none">
<path d="M252 698 c-17 -17 -17 -379 0 -396 17 -17 459 -17 476 0 7 7 12 33
12 59 l0 48 -47 4 c-47 3 -47 3 10 5 l57 2 0 60 0 60 -52 2 c-51 1 -51 2 -10
5 l42 4 0 49 c0 39 -4 52 -20 60 -11 6 -20 17 -20 24 0 23 -25 26 -234 26
-144 0 -205 -3 -214 -12z"/>
</g>
</svg>
