<?xml version="1.0" standalone="no"?>
<!DOCTYPE svg PUBLIC "-//W3C//DTD SVG 20010904//EN"
 "http://www.w3.org/TR/2001/REC-SVG-20010904/DTD/svg10.dtd">
<svg version="1.0" xmlns="http://www.w3.org/2000/svg"
 width="100.000000pt" height="100.000000pt" viewBox="0 0 100.000000 100.000000"
 preserveAspectRatio="xMidYMid meet">
<metadata>
Created by potrace 1.15, written by Peter Selinger 2001-2017
</metadata>
<g transform="translate(0.000000,100.000000) scale(0.100000,-0.100000)"
fill="#2e7d32" stroke="none">
<path d="M590 735 c-20 -24 -15 -67 10 -87 15 -12 18 -18 8 -18 -8 0 -22 -8
-31 -18 -14 -16 -17 -43 -17 -170 0 -84 -4 -152 -8 -152 -5 0 -16 8 -26 19
-13 14 -14 24 -6 45 36 96 -34 206 -132 206 -81 0 -139 -46 -153 -122 -9 -50
9 -101 50 -137 49 -42 96 -49 158 -22 45 18 52 19 67 6 9 -8 22 -15 28 -15 7
0 21 -6 32 -12 15 -10 25 -10 38 -2 14 9 16 23 14 73 -3 38 0 61 7 61 6 0 11
-29 13 -67 3 -66 4 -68 30 -71 37 -4 40 13 36 198 -3 146 -4 153 -27 171 -22
18 -23 21 -7 37 18 21 20 45 6 73 -13 23 -72 26 -90 4z"/>
</g>
</svg>
