<?xml version="1.0" standalone="no"?>
<!DOCTYPE svg PUBLIC "-//W3C//DTD SVG 20010904//EN"
 "http://www.w3.org/TR/2001/REC-SVG-20010904/DTD/svg10.dtd">
<svg version="1.0" xmlns="http://www.w3.org/2000/svg"
 width="100.000000pt" height="100.000000pt" viewBox="0 0 100.000000 100.000000"
 preserveAspectRatio="xMidYMid meet">
<metadata>
Created by potrace 1.15, written by Peter Selinger 2001-2017
</metadata>
<g transform="translate(0.000000,100.000000) scale(0.100000,-0.100000)"
fill="#2e7d32" stroke="none">
<path d="M437 692 c-108 -108 -117 -120 -117 -155 l0 -37 63 0 63 0 29 -60
c16 -33 37 -68 47 -77 14 -13 18 -32 18 -95 0 -77 0 -78 25 -78 l25 0 0 155 0
155 60 0 60 0 0 -155 0 -155 50 0 50 0 0 192 0 193 -117 117 c-65 65 -122 118
-128 118 -6 0 -63 -53 -128 -118z"/>
<path d="M670 782 c0 -21 16 -43 63 -90 34 -34 66 -62 70 -62 4 0 7 41 7 90
l0 90 -70 0 c-70 0 -70 0 -70 -28z"/>
<path d="M240 410 c-13 -28 -30 -56 -37 -62 -7 -6 -13 -31 -13 -59 0 -46 2
-49 25 -49 20 0 25 -5 25 -25 0 -20 5 -25 25 -25 20 0 25 5 25 25 0 24 3 25
60 25 57 0 60 -1 60 -25 0 -20 5 -25 25 -25 20 0 25 5 25 25 0 18 5 25 20 25
18 0 20 7 20 54 0 30 -5 58 -10 61 -6 4 -22 29 -35 56 l-25 49 -83 0 -84 0
-23 -50z"/>
</g>
</svg>
