<?xml version="1.0" standalone="no"?>
<!DOCTYPE svg PUBLIC "-//W3C//DTD SVG 20010904//EN"
 "http://www.w3.org/TR/2001/REC-SVG-20010904/DTD/svg10.dtd">
<svg version="1.0" xmlns="http://www.w3.org/2000/svg"
 width="100.000000pt" height="100.000000pt" viewBox="0 0 100.000000 100.000000"
 preserveAspectRatio="xMidYMid meet">
<metadata>
Created by potrace 1.15, written by Peter Selinger 2001-2017
</metadata>
<g transform="translate(0.000000,100.000000) scale(0.100000,-0.100000)"
fill="#2e7d32" stroke="none">
<path d="M637 663 c-44 -5 -60 -29 -32 -49 18 -13 17 -16 -15 -49 l-33 -34
-39 34 c-21 19 -46 35 -56 35 -17 0 -232 -208 -232 -224 0 -23 24 -46 48 -46
20 0 46 20 107 80 l81 80 34 -35 c19 -19 43 -35 54 -35 11 0 46 25 78 57 45
45 60 55 70 45 36 -36 58 2 58 106 l0 42 -42 -2 c-24 -1 -60 -3 -81 -5z"/>
</g>
</svg>
