<?xml version="1.0" standalone="no"?>
<!DOCTYPE svg PUBLIC "-//W3C//DTD SVG 20010904//EN"
 "http://www.w3.org/TR/2001/REC-SVG-20010904/DTD/svg10.dtd">
<svg version="1.0" xmlns="http://www.w3.org/2000/svg"
 width="100.000000pt" height="100.000000pt" viewBox="0 0 100.000000 100.000000"
 preserveAspectRatio="xMidYMid meet">
<metadata>
Created by potrace 1.15, written by Peter Selinger 2001-2017
</metadata>
<g transform="translate(0.000000,100.000000) scale(0.100000,-0.100000)"
fill="#2e7d32" stroke="none">
<path d="M409 796 c-65 -17 -131 -59 -178 -112 -59 -67 -54 -109 7 -64 38 28
95 29 132 2 36 -27 38 -27 66 -1 32 30 94 30 133 1 l31 -23 29 22 c37 27 91
27 137 -1 72 -42 60 16 -19 91 -86 83 -221 117 -338 85z"/>
<path d="M480 610 c0 -11 -7 -20 -15 -20 -9 0 -27 -11 -40 -25 -44 -44 -26
-157 35 -223 11 -11 20 -32 20 -45 0 -48 -53 -65 -70 -22 -14 36 -50 34 -50
-3 0 -60 52 -93 115 -72 31 10 55 43 55 77 0 11 10 6 35 -16 20 -17 38 -31 41
-31 3 0 24 13 47 29 138 96 202 241 136 307 -36 36 -96 43 -146 16 -38 -19
-39 -19 -62 -1 -13 11 -29 19 -37 19 -8 0 -14 7 -14 15 0 9 -9 15 -25 15 -18
0 -25 -5 -25 -20z"/>
</g>
</svg>
