<?xml version="1.0" standalone="no"?>
<!DOCTYPE svg PUBLIC "-//W3C//DTD SVG 20010904//EN"
 "http://www.w3.org/TR/2001/REC-SVG-20010904/DTD/svg10.dtd">
<svg version="1.0" xmlns="http://www.w3.org/2000/svg"
 width="100.000000pt" height="100.000000pt" viewBox="0 0 100.000000 100.000000"
 preserveAspectRatio="xMidYMid meet">
<metadata>
Created by potrace 1.15, written by Peter Selinger 2001-2017
</metadata>
<g transform="translate(0.000000,85.000000) scale(0.100000,-0.100000)"
fill="#2e7d32" stroke="none">
<path d="M441 763 c-30 -17 -46 -22 -49 -15 -2 7 -23 12 -48 12 l-44 0 0 -38
c0 -36 -3 -39 -66 -75 -61 -36 -65 -40 -62 -70 3 -28 7 -32 35 -35 l33 -3 2
-162 3 -162 249 -3 c193 -2 251 1 258 10 4 7 8 81 8 165 l0 152 33 3 c29 3 32
6 32 38 0 35 -1 36 -155 122 -85 48 -162 88 -170 88 -8 0 -35 -12 -59 -27z
m79 -165 c0 -7 12 -22 28 -34 32 -26 23 -43 -12 -24 -35 18 -76 6 -76 -24 0
-19 7 -24 36 -29 20 -3 45 -14 55 -23 27 -24 24 -70 -5 -89 -13 -9 -26 -25
-29 -35 -6 -25 -25 -26 -34 -3 -4 9 -18 27 -32 39 -30 26 -22 43 13 25 34 -19
70 -11 74 17 3 22 -1 26 -50 36 -60 13 -80 81 -33 112 14 9 25 23 25 30 0 8 9
14 20 14 11 0 20 -5 20 -12z"/>
</g>
</svg>
