<?xml version="1.0" standalone="no"?>
<!DOCTYPE svg PUBLIC "-//W3C//DTD SVG 20010904//EN"
 "http://www.w3.org/TR/2001/REC-SVG-20010904/DTD/svg10.dtd">
<svg version="1.0" xmlns="http://www.w3.org/2000/svg"
 width="100.000000pt" height="100.000000pt" viewBox="0 0 100.000000 100.000000"
 preserveAspectRatio="xMidYMid meet">
<metadata>
Created by potrace 1.15, written by Peter Selinger 2001-2017
</metadata>
<g transform="translate(0.000000,100.000000) scale(0.100000,-0.100000)"
fill="#2e7d32" stroke="none">
<path d="M619 639 c-13 -13 -19 -29 -17 -44 5 -21 4 -22 -23 -7 -56 33 -111
-28 -75 -83 31 -47 106 -25 106 31 0 21 3 23 19 14 29 -15 56 -12 74 8 54 59
-28 137 -84 81z"/>
<path d="M365 450 c-27 -17 -67 -35 -87 -42 -44 -13 -46 -17 -15 -46 40 -37
75 -45 116 -25 26 13 60 18 126 18 86 1 94 3 173 43 113 58 112 98 -2 69 -37
-9 -72 -11 -108 -6 -147 21 -150 21 -203 -11z"/>
</g>
</svg>
