<?xml version="1.0" standalone="no"?>
<!DOCTYPE svg PUBLIC "-//W3C//DTD SVG 20010904//EN"
 "http://www.w3.org/TR/2001/REC-SVG-20010904/DTD/svg10.dtd">
<svg version="1.0" xmlns="http://www.w3.org/2000/svg"
 width="100.000000pt" height="100.000000pt" viewBox="0 0 100.000000 100.000000"
 preserveAspectRatio="xMidYMid meet">
<metadata>
Created by potrace 1.15, written by Peter Selinger 2001-2017
</metadata>
<g transform="translate(0.000000,100.000000) scale(0.100000,-0.100000)"
fill="#2e7d32" stroke="none">
<path d="M218 689 c-16 -9 -18 -29 -18 -189 0 -167 1 -180 19 -190 12 -6 120
-10 281 -10 161 0 269 4 281 10 18 10 19 23 19 190 0 167 -1 180 -19 190 -26
13 -540 13 -563 -1z m543 -19 c10 -6 19 -17 19 -25 0 -13 -41 -15 -280 -15
-238 0 -280 2 -280 15 0 7 8 19 18 24 23 14 497 14 523 1z m19 -85 l0 -25
-280 0 -280 0 0 25 0 25 280 0 280 0 0 -25z m0 -145 c0 -88 -2 -100 -19 -110
-26 -14 -496 -14 -522 0 -17 10 -19 22 -19 110 l0 100 280 0 280 0 0 -100z"/>
<path d="M558 458 c-22 -22 -23 -37 -3 -65 12 -18 25 -21 72 -21 64 0 93 17
93 53 0 34 -27 50 -88 51 -41 0 -60 -4 -74 -18z"/>
</g>
</svg>
