<svg id="Capa_1" data-name="Capa 1" xmlns="http://www.w3.org/2000/svg" viewBox="0 0 56.4 65.74">
    <style>
      #bold_copy {
        fill: #fff;
      }
    </style>
    <title>wallet</title>
    <g id="bold_copy" data-name="bold copy">
      <path d="M64.29,30.78H52.19v38H20v-38H7.89L36.09,3ZM20,26.62h4.12v38h24v-38h6.2L36.15,8.72,18,26.62Z" transform="translate(-7.89 -3)"/>
      <path d="M37.43,56.79v-3a7.87,7.87,0,0,0,5-2.47,7.27,7.27,0,0,0,1.78-5A6.49,6.49,0,0,0,42.75,42c-.94-1.12-2.72-2-5.32-2.74V32.89a3.33,
      3.33,0,0,1,2,2.61L43.5,35a6.79,6.79,0,0,0-2-3.9,7,7,0,0,0-4.12-1.76V27.68H34.88v1.6a6.78,6.78,0,0,0-4.38,2.09,6.33,6.33,0,0,0-1.69,4.49,
      6.92,6.92,0,0,0,1.49,4.48C31.3,41.57,35,43.1,35,43.1v6.82a7.87,7.87,0,0,1-1.62-1.37,5.35,5.35,0,0,1-1-2.25l-4.25.46a8.66,8.66,0,0,0,2.25,5,
      7.48,7.48,0,0,0,4.6,2.1v2.84h2.28v.13Zm-.13-13A4.14,4.14,0,0,1,39.4,45a2.9,2.9,0,0,1,.65,1.88A3.21,3.21,0,0,1,39.28,49a3.31,3.31,0,0,1-2,
      1.13V43.78Zm-3.86-6.52a2.68,2.68,0,0,1-.52-1.6,2.9,2.9,0,0,1,.56-1.72A3.18,3.18,0,0,1,35,32.83v5.63A3.51,3.51,0,0,1,33.44,37.26Z" transform="translate(-7.89 -3)"/>
    </g>
</svg>
