<svg id="Capa_1" data-name="Capa 1" xmlns="http://www.w3.org/2000/svg" viewBox="0 0 51.49 50.27"><title>00000000-0000-0000-0000-000000000050</title><path d="M50.47,10.86,37.94,25.47h5.6v6.35a16.94,16.94,0,0,1,0,22v7.27H57.4V25.47H63Z" transform="translate(-11.51 -10.86)" fill="#fff"/><path d="M27.5,27a15.75,15.75,0,1,0,16,15.75A15.87,15.87,0,0,0,27.5,27Zm1.2,25.36v2.38H26.32V52.52a10.9,10.9,0,0,1-5.13-1.29l.88-2.62A9.32,9.32,0,0,0,26.67,50c2.54,0,3.73-1.18,3.73-2.82s-1-2.54-3.57-3.48c-3.45-1.21-5.08-3.09-5.08-5.36A5.53,5.53,0,0,1,26.32,33V31.27H28.7v1.5a9.45,9.45,0,0,1,4.41,1.17l-.88,2.5a7.63,7.63,0,0,0-3.93-1.09c-2.06,0-3.22,1.17-3.22,2.58,0,1.56,1.16,2.27,3.66,3.21,3.33,1.24,5,2.88,5,5.71S31.88,51.79,28.7,52.36Z" transform="translate(-11.51 -10.86)" fill="#fff"/></svg>