<svg id="Capa_1" data-name="Capa 1" xmlns="http://www.w3.org/2000/svg" viewBox="0 0 46.78 57"><title>Saving</title><path d="M46.51,7.5,33.64,24.06h5.75V36.8a15.21,15.21,0,0,1,0,21.42V64.5H53.63V24.06h5.76Z" transform="translate(-12.61 -7.5)" fill="#ffffff"/><path d="M27.86,32.25A15.26,15.26,0,1,0,43.12,47.5,15.25,15.25,0,0,0,27.86,32.25Zm.78,21.85v1.11H27.05v-1a7.25,7.25,0,0,1-3.41-.88l.59-1.78a6.1,6.1,0,0,0,3.08.93c1.69,0,2.49-.79,2.49-1.91s-.66-1.72-2.39-2.36C25.1,47.39,24,46.11,24,44.58a3.72,3.72,0,0,1,3-3.64V39.29h1.59v1.52a6.25,6.25,0,0,1,3,.79L31,43.3a5.07,5.07,0,0,0-2.63-.74c-1.38,0-2.15.79-2.15,1.75s.77,1.54,2.45,2.18c2.22.84,3.37,1.95,3.37,3.87A3.75,3.75,0,0,1,28.64,54.1Z" transform="translate(-12.61 -7.5)" fill="#fff"/></svg>
