<svg fill="#ffffff" xmlns="http://www.w3.org/2000/svg" xmlns:xlink="http://www.w3.org/1999/xlink" version="1.1" x="0px" y="0px" viewBox="-434 236 90 90" style="enable-background:new -434 236 90 90;" xml:space="preserve"><style type="text/css">
	.st0{stroke:#ffffff;stroke-width:2;stroke-miterlimit:10;}
</style><g><path class="st0" d="M-352,277.8c-0.8-2-7.6-3.3-7.6-3.3h-58.8c0,0-6.8,1.3-7.6,3.3c-0.4,1-0.2,9.8-0.2,9.8c0,1.2,0.3,2.3,1.3,3   c0,0.1-0.3,0.1-0.3,0.2v10.9c0.1,1.6,1.8,2.6,3.5,2.6h6.2c1.7,0,3.4-1,3.4-2.7v-3.3l6.9,0.4l0.9,0.5h30.6l0.9-0.5l6.9-0.4v3.3   c0,1.7,1.7,2.7,3.4,2.7h6.2c1.7,0,3.4-1,3.5-2.6v-10.9c0-0.1-0.3-0.1-0.3-0.2c1-0.7,1.3-1.8,1.3-3   C-351.8,287.6-351.6,278.8-352,277.8z M-405.8,289.6c0,0-13.1-5.6-14.4-6.4c-0.5-0.3-0.6-0.7-0.5-1.1c0.2-0.8,1.4-1.5,1.4-1.5   s10.2,1.3,12.3,2c2.1,0.7,3.5,3.5,3.4,5.4C-403.7,289.8-405.8,289.6-405.8,289.6z M-357.8,283.2c-1.3,0.8-14.4,6.4-14.4,6.4   s-2.1,0.2-2.2-1.6c-0.1-1.9,1.3-4.7,3.4-5.4c2.1-0.7,12.3-2,12.3-2S-356.1,282.2-357.8,283.2z"></path><path class="st0" d="M-349.6,269.5c-0.1,0.7-0.6,1.3-1.2,1.5c-0.3,0.1-5.6,1.1-5.6,1.1c-0.8,0.2-1.6-0.2-2-0.9l-0.3,2.8   c0,0-6.6-9.4-7.6-10.8c-1-1.4-4.4-3-4.4-3h-36.6c0,0-3.4,1.6-4.4,3c-1,1.4-7.6,10.8-7.6,10.8l-0.3-2.8c-0.4,0.7-1.2,1.1-2,0.9   c0,0-5.5-1-5.8-1.2c-0.5-0.3-0.9-0.8-1-1.4c-0.2-1,0.6-2,1.6-2.1l3.9-0.5c0.6-0.1,2.3,1.6,2.6,1.8c0.3,0.2,0.7,0.5,0.8,0.7   c1.2-1.6,6.7-9.3,7.8-10c1.3-0.8,2.9-1.6,4.1-1.7h37.2c1.2,0.1,2.8,0.9,4.1,1.7c1.1,0.7,6.6,8.4,7.8,10c0.1-0.3,0.5-0.5,0.8-0.7   s2-1.9,2.6-1.8l3.9,0.5C-350.2,267.5-349.4,268.5-349.6,269.5z"></path></g></svg>
