<svg fill="#ffffff" xmlns="http://www.w3.org/2000/svg" xmlns:xlink="http://www.w3.org/1999/xlink" version="1.1" x="0px" y="0px" viewBox="0 0 100 100" enable-background="new 0 0 100 100" xml:space="preserve"><g><path d="M37.407,30.776l-4.072-1.763c-0.077,0.686-0.127,1.381-0.127,2.086c0,0.372,0.016,0.739,0.035,1.103   c0.029,0.533,0.081,1.06,0.156,1.58c0.013,0.159,0.026,0.317,0.04,0.474C34.498,46.239,41.508,55.495,50,55.495   s15.502-9.256,16.561-21.239c0.015-0.157,0.029-0.314,0.041-0.474c0.075-0.52,0.125-1.047,0.155-1.58   c0.021-0.364,0.036-0.731,0.036-1.103c0-0.706-0.051-1.4-0.127-2.087l-4.073,1.764c-0.018,2.481-0.392,4.706-0.392,4.706   c0.875-0.611,1.676-0.927,2.329-1.09C63.568,44.858,57.43,52.928,50,52.928c-7.43,0-13.568-8.069-14.532-18.535   c0.653,0.163,1.456,0.479,2.33,1.09C37.798,35.482,37.424,33.258,37.407,30.776z"></path><path d="M38.557,87.563H50h6.923l2.016-5.538c-1.629-2.022-2.606-4.59-2.606-7.384c0-6.501,5.289-11.792,11.793-11.792   c6.502,0,11.792,5.291,11.792,11.792c0,2.794-0.979,5.361-2.606,7.384l1.234,3.392c3.195-1.688,5.117-4.704,5.117-10.096   c0-11.223-8.316-20.5-19.125-22.005c-0.037-0.006-0.077-0.008-0.116-0.014c-0.311-0.041-0.621-0.077-0.933-0.105   c-0.002,0.031-0.012,0.063-0.012,0.094c-0.005,0.092-0.021,0.181-0.032,0.275c-0.058,0.52-0.212,1.024-0.455,1.511   c-1.633,4.109-6.915,11.898-10.025,16.319l-0.641-9.186c0.907-0.465,1.689-1.237,2.189-2.132c0.36-0.644,0.581-1.345,0.581-2.063   c0,0-2.32,1.028-4.688,1.028c-0.135,0-0.27-0.002-0.405-0.008c-0.135,0.006-0.271,0.008-0.405,0.008   c-2.369,0-4.688-1.028-4.688-1.028c0,0.718,0.22,1.419,0.581,2.063c0.5,0.895,1.282,1.665,2.19,2.132l-0.641,9.186   c-3.111-4.421-8.394-12.21-10.025-16.319c-0.243-0.486-0.399-0.991-0.457-1.511c-0.012-0.095-0.026-0.184-0.031-0.275   c-0.001-0.03-0.011-0.063-0.011-0.094c-0.314,0.028-0.625,0.064-0.935,0.105c-0.039,0.006-0.079,0.008-0.116,0.014   c-10.807,1.505-19.124,10.782-19.124,22.005C16.337,87.593,26.286,87.563,38.557,87.563z"></path><path d="M73.25,16.623c1.402-0.607,1.402-1.599,0-2.206L52.548,5.456C51.847,5.152,50.923,5,50,5s-1.847,0.152-2.549,0.456   l-20.702,8.961c-1.401,0.607-1.401,1.599,0,2.206l1.569,0.678l-0.132,1.054c-0.602,0.103-1.06,0.625-1.06,1.256   c0,0.567,0.369,1.047,0.882,1.211l-0.953,13.34c-0.039,0.557,0.073,1.445,0.25,1.974l0.772,2.319   c0.088,0.265,0.204,0.398,0.32,0.398c0.116,0,0.231-0.133,0.32-0.398l0.774-2.319c0.177-0.529,0.288-1.417,0.249-1.974   l-0.952-13.34c0.51-0.165,0.882-0.644,0.882-1.211c0-0.631-0.458-1.153-1.061-1.256l-0.122-0.979l3.622,1.568l1.775,0.768v6.848   l5.86,2.536l7.707,3.337c0.702,0.304,1.625,0.456,2.549,0.456s1.847-0.152,2.548-0.456l7.708-3.337l5.86-2.537V19.71l1.773-0.767   L73.25,16.623z"></path><path d="M71.109,86.051c-0.458,0.121-0.927,0.211-1.403,0.275c-0.439,0.06-0.887,0.094-1.34,0.103   c-0.08,0.002-0.161,0.005-0.241,0.005c-0.082,0-0.162-0.003-0.243-0.005c-0.452-0.009-0.9-0.043-1.34-0.103   c-0.477-0.064-0.944-0.154-1.401-0.275c-1.584-0.413-3.035-1.15-4.286-2.133l-2.919,8.019c-0.127,0.35-0.013,0.568,0.254,0.568   c0.076,0,0.164-0.019,0.263-0.055l3.246-1.209c0.106-0.04,0.22-0.058,0.332-0.058c0.362,0,0.73,0.193,0.91,0.509l1.71,3.013   C64.762,94.902,64.895,95,65.02,95c0.14,0,0.271-0.119,0.355-0.355l1.446-3.973l0.652-1.789l0.651-1.789l0.651,1.789l0.651,1.789   l1.445,3.973C70.958,94.881,71.09,95,71.229,95c0.126,0,0.258-0.098,0.37-0.295l1.709-3.013c0.18-0.315,0.548-0.509,0.91-0.509   c0.113,0,0.226,0.018,0.332,0.058l3.246,1.209c0.1,0.036,0.187,0.055,0.263,0.055c0.268,0,0.381-0.219,0.254-0.568l-2.918-8.019   C74.143,84.9,72.691,85.638,71.109,86.051z"></path><path d="M60.813,80.457c0.286,0.358,0.599,0.698,0.935,1.012c0.68,0.636,1.454,1.171,2.301,1.583   c0.482,0.233,0.988,0.427,1.513,0.576c0.455,0.129,0.925,0.226,1.406,0.285c0.379,0.046,0.766,0.073,1.158,0.073   c0.392,0,0.777-0.027,1.156-0.073c0.482-0.06,0.951-0.156,1.407-0.285c0.524-0.149,1.031-0.343,1.513-0.576   c0.847-0.412,1.621-0.947,2.302-1.583c0.335-0.313,0.646-0.653,0.933-1.012c0.314-0.395,0.598-0.816,0.847-1.259   c0.755-1.348,1.187-2.9,1.187-4.557c0-5.159-4.184-9.343-9.344-9.343c-5.162,0-9.345,4.184-9.345,9.343   c0,1.656,0.431,3.209,1.187,4.557C60.215,79.641,60.498,80.063,60.813,80.457z M62.696,73.258c0.617-2.426,2.81-4.223,5.429-4.223   c2.617,0,4.811,1.797,5.427,4.223c0.112,0.444,0.181,0.906,0.181,1.384c0,0.311-0.032,0.613-0.081,0.911   c-0.051,0.309-0.124,0.608-0.224,0.897c-0.11,0.325-0.247,0.636-0.413,0.93c-0.124,0.224-0.266,0.434-0.419,0.635   c-0.461,0.612-1.044,1.128-1.716,1.509c-0.814,0.46-1.754,0.726-2.755,0.726c-1.003,0-1.942-0.266-2.756-0.726   c-0.672-0.381-1.255-0.896-1.717-1.509c-0.152-0.201-0.294-0.411-0.419-0.635c-0.165-0.294-0.302-0.604-0.413-0.93   c-0.099-0.289-0.173-0.589-0.224-0.899c-0.049-0.296-0.08-0.599-0.08-0.909C62.517,74.164,62.584,73.702,62.696,73.258z"></path><polygon points="65.191,74.681 65.963,75.432 66.165,75.63 66.193,75.657 65.963,77.006 65.737,78.315 68.125,77.061    70.511,78.315 70.286,77.006 70.055,75.657 70.085,75.63 70.286,75.432 71.058,74.681 71.919,73.839 71.986,73.774 69.317,73.387    69.23,73.21 68.125,70.969 67.018,73.21 66.931,73.387 64.264,73.774 64.329,73.839  "></polygon></g></svg>
