<svg fill="#ffffff" xmlns="http://www.w3.org/2000/svg" xmlns:xlink="http://www.w3.org/1999/xlink" version="1.1" x="0px" y="0px" viewBox="0 0 64 64" style="enable-background:new 0 0 64 64;" xml:space="preserve"><style type="text/css">
	.st0{fill:none;}
</style><g><path d="M53.1,40.9c-0.2-5.2-5.2-3.3-5.2-3.3c-0.1,0-0.1,0-0.1-0.1c-1.2-4.2-6.1-1.8-6.1-1.8l-7.2,4.2c0.5,0,1,0.1,1.6,0.1   c0.3,0,0.7,0.1,1,0.1c0.9,0.1,1.7,0.4,2.4,0.7c0.8,0.4,1.4,1,1.7,1.7c0.1,0.3,0.2,0.7,0.2,1.1c0,0.7-0.3,1.5-1.1,2.5   c0,0.1-0.1,0.1-0.2,0.2c-0.9,0.9-2.2,1.8-3.7,2.4c-1.9,0.8-4.2,1.3-6.7,1.3c-1.6,0-3.2-0.2-4.8-0.6l-1-0.3c-0.1,0-0.1-0.1-0.1-0.1   v-1.3c0-0.1,0.1-0.1,0.2-0.1c11.3,4,21.9-5.5,12-6.1c-9.8-0.7-10.3-2.9-10.3-3.2c0,0,0,0,0-0.1C19.7,29,6.1,38.9,4.9,39.8   c-0.1,0-0.1,0.1,0,0.2l0.5,1l6.1,11.4l0.9,1.8c0,0.1,0.1,0.1,0.2,0.1l0,0c0.8-0.3,1.5-0.9,2.2-1.4c1.6-1.3,3.1-1.2,4.9-0.2   c3,1.7,6.2,3.2,9.3,4.8c0.7,0.4,1.3,0.6,2,0.9c0,0,0,0,0,0c2.5,0.6,4.8,0.2,6.4-0.4c1.9-0.7,3.1-1.6,3.1-1.6c0,0,0,0,0,0l16.3-10.7   c0.8-0.5,1.3-1.1,1.7-1.5c1-1.4,0.8-2.5-0.1-3.3C57.2,39.5,54.7,39.3,53.1,40.9 M52.4,40.9 M47.4,44.8   C47.4,44.8,47.4,44.8,47.4,44.8L47.4,44.8L47.4,44.8z"></path><path d="M46.6,15.6L42.9,13V6.5h-4.3v3.3L33.5,6c-1-0.7-2.4-0.7-3.4,0l-12.7,9.6c-0.9,0.7-1.1,2-0.4,2.9c0.7,0.9,2,1,2.9,0.3   l0.8-0.6V29c0,1.4,1.1,2.5,2.5,2.5h1.1h15.4h1.1c1.4,0,2.5-1.1,2.5-2.5V18.3l0.9,0.7c0.4,0.3,0.8,0.4,1.2,0.4   c0.6,0,1.2-0.3,1.6-0.8C47.7,17.7,47.5,16.3,46.6,15.6z M36.8,25.2c-0.3,0.6-0.8,1.1-1.3,1.4c-0.6,0.4-1.2,0.6-2,0.8   c-0.2,0-0.5,0.1-0.7,0.1v1.2h-1.7v-1c-0.8,0-1.7-0.1-2.4-0.2c-0.4-0.1-0.8-0.2-1.2-0.3c-0.5-0.2-0.8-0.6-0.8-1.1v-1.5   c0-0.5,0.5-0.7,0.9-0.5c0.4,0.2,0.7,0.4,1.1,0.5c0.7,0.3,1.5,0.4,2.2,0.4c0,0,0.1,0,0.1,0c0.4,0,0.7,0,1-0.1   c0.3-0.1,0.5-0.1,0.7-0.2c0.1,0,0.1-0.1,0.2-0.1c0.2-0.1,0.4-0.3,0.5-0.5c0.1-0.2,0.2-0.4,0.2-0.6c0-0.3-0.1-0.6-0.3-0.8   c-0.1-0.2-0.3-0.4-0.5-0.5c-0.1,0-0.1-0.1-0.2-0.1c-0.3-0.2-0.7-0.4-1.1-0.6c-0.1-0.1-0.3-0.1-0.4-0.2c-0.3-0.1-0.6-0.2-0.9-0.4   c-1.2-0.5-2.1-1.1-2.7-1.8c-0.6-0.7-0.9-1.6-0.9-2.6c0-0.8,0.2-1.5,0.5-2.1c0.3-0.6,0.8-1.1,1.3-1.4c0.6-0.4,1.2-0.6,1.9-0.8   c0.2-0.1,0.5-0.1,0.7-0.1v-1.2h1.7v1c0.8,0,1.5,0.1,2.1,0.1c0.3,0,0.6,0.1,0.8,0.2c0.5,0.1,0.9,0.6,0.9,1.1v1.4   c0,0.4-0.4,0.7-0.8,0.5c-0.3-0.1-0.6-0.2-0.9-0.3c-0.3-0.1-0.6-0.2-1-0.2c-0.3,0-0.6-0.1-0.9-0.1c0,0-0.1,0-0.1,0   c-0.3,0-0.7,0-1,0.1c-0.3,0.1-0.5,0.1-0.7,0.3c0,0-0.1,0-0.1,0.1c-0.2,0.1-0.4,0.3-0.5,0.5c-0.1,0.2-0.2,0.4-0.2,0.6   c0,0.3,0.1,0.5,0.2,0.7c0.1,0.2,0.3,0.4,0.6,0.6c0,0,0,0,0,0c0.2,0.2,0.5,0.4,0.9,0.5c0.2,0.1,0.5,0.2,0.8,0.4   c0.1,0.1,0.3,0.1,0.4,0.2c0.6,0.3,1.2,0.5,1.7,0.8c0.5,0.3,0.9,0.6,1.3,1c0.4,0.4,0.6,0.8,0.8,1.3c0.2,0.5,0.3,1,0.3,1.6   C37.3,23.9,37.1,24.6,36.8,25.2z"></path></g></svg>
