<svg fill="#ffffff" xmlns:dc="http://purl.org/dc/elements/1.1/" xmlns:cc="http://creativecommons.org/ns#" xmlns:rdf="http://www.w3.org/1999/02/22-rdf-syntax-ns#" xmlns:svg="http://www.w3.org/2000/svg" xmlns="http://www.w3.org/2000/svg" xmlns:sodipodi="http://sodipodi.sourceforge.net/DTD/sodipodi-0.dtd" xmlns:inkscape="http://www.inkscape.org/namespaces/inkscape" version="1.1" x="0px" y="0px" viewBox="0 0 100 100"><g transform="translate(0,-952.36218)"><path style="color:#000000;enable-background:accumulate;" d="m 50.007222,962.3622 c -1.45376,0.004 -2.92572,0.37244 -3.84395,1.09804 l -14.21946,9.09803 0,-2.57255 c 0,-2.96951 -0.98484,-3.98431 -2.93764,-3.98431 l -4.93775,0 c -2.06993,0 -3.06265,1.02557 -3.06265,4.17255 l 0,9.38039 -11.2193102,7.18431 c -1.68026,1.05575 -2.3251,3.82205 -1.28131,5.52157 l 3.1251502,5.08235 c 1.04381,1.69956 4.69505,2.84402 6.37532,1.78823 l 32.0016,-21.08234 33.00164,21.08234 c 1.71583,1.11589 4.13706,-0.0547 5.09401,-1.66274 l 3.34391,-5.08235 c 1.08139,-1.67503 0.51511,-4.43134 -1.1563,-5.61569 l -36.50183,-23.34117 c -0.89656,-0.71083 -2.32768,-1.07035 -3.78143,-1.06666 z m 0,17.75685 -29.00145,19.07451 0,34.07054 33.00165,0 0,-23.0901 a 2.0002278,2.0079709 0 0 1 1.81259,-2.0079 2.0002278,2.0079709 0 0 1 0.18751,0 l 16.00079,0 a 2.0002278,2.0079709 0 0 1 2.0001,2.0079 l 0,23.0901 6.0003,0 0,-34.07054 -30.00149,-19.07451 z m 0,6.99608 c 3.29018,0 6.0003,2.7206 6.0003,6.02353 0,3.30292 -2.71012,6.02353 -6.0003,6.02353 -3.29019,0 -6.0003,-2.72061 -6.0003,-6.02353 0,-3.30293 2.71011,-6.02353 6.0003,-6.02353 z m 0,4.01569 c -1.12845,0 -2.0001,0.87501 -2.0001,2.00784 0,1.13281 0.87165,2.00784 2.0001,2.00784 1.12845,0 2.0001,-0.87503 2.0001,-2.00784 0,-1.13283 -0.87165,-2.00784 -2.0001,-2.00784 z m -18.59468,17.03528 7.18786,0 c 1.86638,0 3.40642,1.546 3.40642,3.4196 l 0,7.2471 c 0,1.8736 -1.54004,3.3882 -3.40642,3.3882 l -7.18786,0 c -1.86638,0 -3.40642,-1.5146 -3.40642,-3.3882 l 0,-7.2471 c 0,-1.8736 1.54004,-3.4196 3.40642,-3.4196 z m 0,2.0079 c -0.79292,0 -1.40632,0.6157 -1.40632,1.4117 l 0,2.6039 4.0002,0 0,-4.0156 -2.59388,0 z m 4.59398,0 0,4.0156 4.0002,0 0,-2.6039 c 0,-0.796 -0.6134,-1.4117 -1.40632,-1.4117 l -2.59388,0 z m 22.0011,2.0078 0,21.0823 12.00059,0 0,-21.0823 -12.00059,0 z m -28.0014,4.0157 0,2.6353 c 0,0.796 0.6134,1.3804 1.40632,1.3804 l 2.59388,0 0,-4.0157 -4.0002,0 z m 6.0003,0 0,4.0157 2.59388,0 c 0.79292,0 1.40632,-0.5844 1.40632,-1.3804 l 0,-2.6353 -4.0002,0 z m 24.0012,5.0196 c 0.5523,0 1.00005,0.4495 1.00005,1.0039 0,0.5545 -0.44775,1.0039 -1.00005,1.0039 -0.55231,0 -1.00005,-0.4494 -1.00005,-1.0039 0,-0.5544 0.44774,-1.0039 1.00005,-1.0039 z m -44.0022,14.0549 0,7.0902 68.00339,0 0,-7.0902 -68.00339,0 z" fill="#ffffff" stroke="none" marker="none" visibility="visible" display="inline" overflow="visible"></path></g></svg>
