<svg fill="#ffffff" xmlns="http://www.w3.org/2000/svg" data-name="Layer 1" viewBox="0 0 100 100" x="0px" y="0px"><title>Artboard 18</title><path d="M26,98.26,1,77.81,15.33,63.69a27.61,27.61,0,0,1,29.69-6H62.66a6.62,6.62,0,1,1,0,13.24H49a2.19,2.19,0,0,0,0,4.38H64.48a7.8,7.8,0,0,0,5.83-2.62L87,53.66a6.87,6.87,0,0,1,10.31,9.08L76.47,87a16.35,16.35,0,0,1-12.32,5.6H31.62Zm30.8-82.42a9.47,9.47,0,1,0,9.47,9.47A9.47,9.47,0,0,0,56.76,15.84Zm25.5-14.1A7.16,7.16,0,0,1,89.42,8.9V41.73a7.16,7.16,0,0,1-7.16,7.16h-51a7.16,7.16,0,0,1-7.16-7.16V8.9a7.16,7.16,0,0,1,7.16-7.16Zm-1,18.09a13.13,13.13,0,0,1-9.89-9.89H42.19a13.14,13.14,0,0,1-8.68,9.55,1.75,1.75,0,0,0-1.21,1.66v8.32a1.75,1.75,0,0,0,1.21,1.66,13.14,13.14,0,0,1,8.68,9.55H71.32a13.13,13.13,0,0,1,9.89-9.89Z"></path></svg>
