<svg id="Layer_1" data-name="Layer 1" xmlns="http://www.w3.org/2000/svg" viewBox="0 0 519.98 260.06"><defs><style>.cls-1{fill:#fff;}</style></defs><title>Artboard 1 copy 6</title><path class="cls-1" d="M166.53,185.13l-2.78-3.82-2.3-3.61v33.72c2-1.51,4-3.12,5.94-4.79V186.31C167.1,185.92,166.81,185.53,166.53,185.13Z"/><path class="cls-1" d="M153.82,164.43v52q2.9-1.72,5.66-3.65V174.55C157.47,171.27,155.6,167.88,153.82,164.43Z"/><path class="cls-1" d="M172.24,192.43c-1-1.23-2-2.46-3-3.72V205q2.88-2.65,5.53-5.53v-4.15C173.9,194.39,173.06,193.43,172.24,192.43Z"/><path class="cls-1" d="M147.79,151.49c-1.18-3-2.46-6-3.49-9-.27-.73-.52-1.46-.79-2.19v81.42c2.45-1.07,4.86-2.22,7.2-3.49V158.11C149.71,155.91,148.71,153.71,147.79,151.49Z"/><polygon class="cls-1" points="87.09 81.2 106.53 99.55 125.97 81.2 87.09 81.2"/><polygon class="cls-1" points="106.53 145.43 127.27 125.86 106.53 106.29 85.79 125.86 106.53 145.43"/><polygon class="cls-1" points="121.35 68.15 127.82 62.04 114.92 62.04 115.16 62.3 121.35 68.15"/><path class="cls-1" d="M138.74,124.65c-1.56-5.86-2.8-11.59-3.79-17.05-.42-2.2-.78-4.34-1.09-6.44V225.32c2.37-.73,4.68-1.56,7-2.47V132C140.07,129.57,139.43,127.08,138.74,124.65Z"/><path class="cls-1" d="M69.39,142.52c-1,3-2.3,6-3.49,9-1,2.41-2.08,4.79-3.17,7.17v59.46c2.29,1.25,4.64,2.39,7,3.44V141.46Z"/><path class="cls-1" d="M41.45,192.43c-.9,1.1-1.82,2.16-2.75,3.2v3.6c1.38,1.52,2.83,3,4.31,4.4V190.52Z"/><path class="cls-1" d="M42.91,182l.11-.16v-.57h.39l2.07-3,2.44-3.92a175.56,175.56,0,0,0,9-16.46c1.33-2.85,2.69-5.7,3.92-8.58s2.46-5.77,3.49-8.71c2-5.33,3.83-10.68,5.46-15.92v0h0l.43-1.37c1.65-5.71,3.21-11.24,4.44-16.56.31-1.33.62-2.64.92-3.94s.55-2.57.82-3.83c.58-2.51,1-5,1.49-7.3.75-4.17,1.43-8,2-11.53V57.25h54V80.12c.53,3.51,1.21,7.37,2,11.54.48,2.34.91,4.79,1.48,7.3l.82,3.83c.3,1.29.61,2.61.92,3.93,1.23,5.32,2.79,10.86,4.43,16.57s3.66,11.5,5.89,17.3c1,2.94,2.31,5.8,3.49,8.71s2.59,5.73,3.92,8.58a176.28,176.28,0,0,0,9,16.46l2.44,3.92,2.57,3.77c1.65,2.55,3.5,4.89,5.29,7.22,1.18,1.5,2.38,3,3.58,4.39a92.15,92.15,0,1,0-145.61,0c1.2-1.43,2.4-2.89,3.58-4.39C39.41,186.93,41.26,184.59,42.91,182Z"/><path class="cls-1" d="M49.94,181.31l-2.78,3.82c-.74,1.07-1.52,2.1-2.32,3.11v17.13q3.35,3,7,5.76V178.35Z"/><path class="cls-1" d="M53.8,175.21v37.31q2.84,2,5.83,3.81V164.91C57.79,168.43,55.86,171.88,53.8,175.21Z"/><path class="cls-1" d="M78.74,107.6c-1,5.46-2.22,11.19-3.78,17.05-.81,2.86-1.55,5.79-2.5,8.7v89.34c2.41,1,4.87,1.86,7.37,2.63V101.16C79.51,103.26,79.16,105.4,78.74,107.6Z"/><polygon class="cls-1" points="92.48 70.25 85.94 76.41 98.96 76.41 98.66 76.09 92.48 70.25"/><path class="cls-1" d="M106.53,198.34,84.71,218.93v7.73a92.2,92.2,0,0,0,44.28,0v-7.12Z"/><polygon class="cls-1" points="128.99 75.36 128.99 63.05 122.47 69.2 128.99 75.36"/><polygon class="cls-1" points="84.71 212.19 102.96 194.97 84.71 177.75 84.71 212.19"/><polygon class="cls-1" points="106.53 152.17 85.64 171.88 106.53 191.6 127.42 171.88 106.53 152.17"/><polygon class="cls-1" points="84.71 131.58 84.71 166.02 102.96 148.8 84.71 131.58"/><polygon class="cls-1" points="128.99 166.63 128.99 130.98 110.1 148.8 128.99 166.63"/><polygon class="cls-1" points="128.99 212.79 128.99 177.14 110.1 194.97 128.99 212.79"/><polygon class="cls-1" points="128.99 120.74 128.99 85.1 110.1 102.92 128.99 120.74"/><polygon class="cls-1" points="84.71 85.7 84.71 120.14 102.96 102.92 84.71 85.7"/><polygon class="cls-1" points="98.67 62.3 98.91 62.04 86 62.04 92.47 68.15 98.67 62.3"/><polygon class="cls-1" points="84.71 62.92 84.71 75.48 91.36 69.2 84.71 62.92"/><polygon class="cls-1" points="121.35 70.25 115.17 76.09 114.87 76.41 127.88 76.41 121.35 70.25"/><polygon class="cls-1" points="106.92 68.15 113.1 62.3 113.35 62.04 100.48 62.04 100.75 62.33 106.92 68.15"/><polygon class="cls-1" points="114.13 74.96 120.23 69.2 114.13 63.44 108.03 69.2 114.13 74.96"/><polygon class="cls-1" points="99.69 74.97 105.8 69.2 99.69 63.44 93.59 69.2 99.69 74.97"/><polygon class="cls-1" points="106.92 70.25 100.73 76.09 100.43 76.41 113.39 76.41 113.1 76.09 106.92 70.25"/><path class="cls-1" d="M273.62,110h3.92v53.77h-3.92Z"/><path class="cls-1" d="M331.16,163.72l-38.1-44.32v44.32h-4V110h.69l38.1,44.47V110h4v53.77Z"/><path class="cls-1" d="M376.7,163.72H343V110h33v3.53H347v21.43h21.28v3.53H347v21.74H376.7Z"/><path class="cls-1" d="M402.13,142.67H390.61v21h-3.92V110h16.13c12,0,19.36,6.53,19.36,16.21,0,9.37-6,15.29-15.9,16.36l17.67,21.2H419Zm.84-3.46c9.91,0,15.36-4.46,15.36-13.06,0-7.83-5.45-12.75-15.36-12.75H390.61v25.81Z"/><path class="cls-1" d="M434.31,110h3.92v53.77h-3.92Z"/><path class="cls-1" d="M501.52,136.84a27.08,27.08,0,0,1-26.65,27.42c-13.21,0-26.65-11.21-26.65-27.42s13.44-27.42,26.65-27.42A27.08,27.08,0,0,1,501.52,136.84ZM474.87,113.1c-11.06,0-22.58,9.6-22.58,23.74s11.52,23.73,22.58,23.73c11.83,0,22.58-9.6,22.58-23.73S486.7,113.1,474.87,113.1Z"/><path class="cls-1" d="M235.78,163.72h-4V110h33v3.53h-29v21.43h21.28v3.53H235.78v21.74"/></svg>