<svg id="Capa_1" data-name="Capa 1" xmlns="http://www.w3.org/2000/svg" viewBox="0 0 29 29">
  <defs>
    <style>
      .cls-1{fill:#17307b;}.cls-1,.cls-2{fill-rule:evenodd;}.cls-2{fill:#2bc2fd;}
    </style>
  </defs>
  <title>finerio-icon</title>
  <g id="Finerio-Logo">
    <g id="Group-2">
      <g id="Icon">
        <path id="Path-2-Copy" class="cls-1"
              d="M9.64,9.64H.49a.49.49,0,0,0-.49.48v9.42a9.73,9.73,0,0,0,9.73,9.73H19a.48.48,0,0,0,.48-.49V19.45H11.58a1.94,1.94,0,0,1-1.94-1.94Z"/>
        <path id="Path-2-Copy-2" class="cls-2" d="M19.63,19.45h9.15a.48.48,0,0,0,.49-.48V2A2,2,0,0,0,27.32,0h-17a.48.48,0,0,0-.48.49V9.64h7.87a1.94,
        1.94,0,0,1,1.94,1.94Z"/>
      </g>
    </g>
  </g>
</svg>
