<svg fill="#AAAAAA" width="24" height="24" id="Layer_1" data-name="Layer 1" xmlns="http://www.w3.org/2000/svg" viewBox="0 0 183.7474 184.359"><defs><style>.cls-1{fill:#AAAAAA;}</style></defs><title>finerio-icon-white</title><path class="cls-1" d="M151.4875,140.1313l-2.78-3.82-2.3-3.61v33.72c2-1.51,4-3.12,5.94-4.79v-20.32C152.0575,140.9213,151.7675,140.5313,151.4875,140.1313Z"/><path class="cls-1" d="M138.7775,119.4313v52q2.9-1.72,5.66-3.65v-38.23C142.4275,126.2713,140.5575,122.8813,138.7775,119.4313Z"/><path class="cls-1" d="M157.1975,147.4313c-1-1.23-2-2.46-3-3.72v16.29q2.88-2.65,5.53-5.53v-4.15C158.8575,149.3913,158.0175,148.4313,157.1975,147.4313Z"/><path class="cls-1" d="M132.7475,106.4913c-1.18-3-2.46-6-3.49-9-.27-.73-.52-1.46-.79-2.19v81.42c2.45-1.07,4.86-2.22,7.2-3.49v-60.12C134.6675,110.9113,133.6675,108.7113,132.7475,106.4913Z"/><polygon class="cls-1" points="72.048 36.201 91.488 54.551 110.928 36.201 72.048 36.201"/><polygon class="cls-1" points="91.488 100.431 112.228 80.861 91.488 61.291 70.748 80.861 91.488 100.431"/><polygon class="cls-1" points="106.308 23.151 112.778 17.041 99.878 17.041 100.118 17.301 106.308 23.151"/><path class="cls-1" d="M123.6975,79.6513c-1.56-5.86-2.8-11.59-3.79-17.05-.42-2.2-.78-4.34-1.09-6.44v124.16c2.37-.73,4.68-1.56,7-2.47v-90.85C125.0275,84.5713,124.3875,82.0813,123.6975,79.6513Z"/><path class="cls-1" d="M54.3475,97.5213c-1,3-2.3,6-3.49,9-1,2.41-2.08,4.79-3.17,7.17v59.46c2.29,1.25,4.64,2.39,7,3.44v-80.13Z"/><path class="cls-1" d="M26.4075,147.4313c-.9,1.1-1.82,2.16-2.75,3.2v3.6c1.38,1.52,2.83,3,4.31,4.4v-13.11Z"/><path class="cls-1" d="M27.8675,137.0013l.11-.16v-.57h.39l2.07-3,2.44-3.92a175.562,175.562,0,0,0,9-16.46c1.33-2.85,2.69-5.7,3.92-8.58s2.46-5.77,3.49-8.71c2-5.33,3.83-10.68,5.46-15.92h0l.43-1.37c1.65-5.71,3.21-11.24,4.44-16.56.31-1.33.62-2.64.92-3.94s.55-2.57.82-3.83c.58-2.51,1-5,1.49-7.3.75-4.17,1.43-8,2-11.53v-22.9h54v22.87c.53,3.51,1.21,7.37,2,11.54.48,2.34.91,4.79,1.48,7.3l.82,3.83c.3,1.29.61,2.61.92,3.93,1.23,5.32,2.79,10.86,4.43,16.57s3.66,11.5,5.89,17.3c1,2.94,2.31,5.8,3.49,8.71s2.59,5.73,3.92,8.58a176.2806,176.2806,0,0,0,9,16.46l2.44,3.92,2.57,3.77c1.65,2.55,3.5,4.89,5.29,7.22,1.18,1.5,2.38,3,3.58,4.39a92.15,92.15,0,1,0-145.61,0c1.2-1.43,2.4-2.89,3.58-4.39C24.3675,141.9313,26.2175,139.5913,27.8675,137.0013Z"/><path class="cls-1" d="M34.8975,136.3113l-2.78,3.82c-.74,1.07-1.52,2.1-2.32,3.11v17.13q3.35,3,7,5.76v-32.78Z"/><path class="cls-1" d="M38.7575,130.2113v37.31q2.84,2,5.83,3.81v-51.42C42.7475,123.4313,40.8175,126.8813,38.7575,130.2113Z"/><path class="cls-1" d="M63.6975,62.6013c-1,5.46-2.22,11.19-3.78,17.05-.81,2.86-1.55,5.79-2.5,8.7v89.34c2.41,1,4.87,1.86,7.37,2.63V56.1613C64.4675,58.2613,64.1175,60.4013,63.6975,62.6013Z"/><polygon class="cls-1" points="77.438 25.251 70.898 31.411 83.918 31.411 83.618 31.091 77.438 25.251"/><path class="cls-1" d="M91.4875,153.3413l-21.82,20.59v7.73a92.2011,92.2011,0,0,0,44.28,0v-7.12Z"/><polygon class="cls-1" points="113.948 30.361 113.948 18.051 107.428 24.201 113.948 30.361"/><polygon class="cls-1" points="69.668 167.191 87.918 149.971 69.668 132.751 69.668 167.191"/><polygon class="cls-1" points="91.488 107.171 70.598 126.881 91.488 146.601 112.378 126.881 91.488 107.171"/><polygon class="cls-1" points="69.668 86.581 69.668 121.021 87.918 103.801 69.668 86.581"/><polygon class="cls-1" points="113.948 121.631 113.948 85.981 95.058 103.801 113.948 121.631"/><polygon class="cls-1" points="113.948 167.791 113.948 132.141 95.058 149.971 113.948 167.791"/><polygon class="cls-1" points="113.948 75.741 113.948 40.101 95.058 57.921 113.948 75.741"/><polygon class="cls-1" points="69.668 40.701 69.668 75.141 87.918 57.921 69.668 40.701"/><polygon class="cls-1" points="83.628 17.301 83.868 17.041 70.958 17.041 77.428 23.151 83.628 17.301"/><polygon class="cls-1" points="69.668 17.921 69.668 30.481 76.318 24.201 69.668 17.921"/><polygon class="cls-1" points="106.308 25.251 100.128 31.091 99.828 31.411 112.838 31.411 106.308 25.251"/><polygon class="cls-1" points="91.878 23.151 98.058 17.301 98.308 17.041 85.438 17.041 85.708 17.331 91.878 23.151"/><polygon class="cls-1" points="99.088 29.961 105.188 24.201 99.088 18.441 92.988 24.201 99.088 29.961"/><polygon class="cls-1" points="84.648 29.971 90.758 24.201 84.648 18.441 78.548 24.201 84.648 29.971"/><polygon class="cls-1" points="91.878 25.251 85.688 31.091 85.388 31.411 98.348 31.411 98.058 31.091 91.878 25.251"/></svg>