<svg
    xmlns="http://www.w3.org/2000/svg"
    viewBox="0 0 100 100"
    id="vector">
    <path
        id="path"
        d="M 41.688 5.004 C 41.157 5.057 40.65 5.251 40.219 5.566 L 10.219 27.565 C 9.838 27.846 9.528 28.214 9.317 28.638 C 9.105 29.061 8.996 29.529 9 30.003 L 9 92 C 9 92.795 9.316 93.559 9.879 94.121 C 10.441 94.684 11.205 95 12 95 L 72 95 C 72.795 95 73.559 94.684 74.121 94.121 C 74.684 93.559 75 92.795 75 92 L 75 86.156 C 84.218 83.535 91 75.038 91 65.001 C 91 54.964 84.218 46.467 75 43.846 L 75 8.004 C 75 7.209 74.684 6.445 74.121 5.883 C 73.559 5.32 72.795 5.004 72 5.004 L 42 5.004 C 41.896 4.999 41.791 4.999 41.687 5.004 Z M 45.094 11.004 L 69 11.004 L 69 43.002 C 65.752 43.002 62.655 43.729 59.875 45.002 L 24 45.002 C 23.896 44.997 23.791 44.997 23.687 45.002 C 23.052 45.033 22.443 45.265 21.948 45.664 C 21.454 46.063 21.098 46.609 20.933 47.222 C 20.768 47.836 20.802 48.487 21.03 49.08 C 21.258 49.673 21.668 50.179 22.202 50.525 C 22.736 50.87 23.365 51.037 24 51.002 L 52.063 51.002 C 51.043 52.232 50.174 53.569 49.438 55.002 L 24 55.002 C 23.896 54.997 23.791 54.997 23.687 55.002 C 23.052 55.033 22.443 55.265 21.948 55.664 C 21.454 56.063 21.098 56.609 20.933 57.222 C 20.768 57.836 20.802 58.487 21.03 59.08 C 21.258 59.673 21.668 60.179 22.202 60.525 C 22.736 60.87 23.365 61.037 24 61.002 L 47.375 61.002 C 47.135 62.298 47 63.638 47 65.001 L 24 65.001 C 23.896 64.996 23.791 64.996 23.687 65.001 C 23.052 65.032 22.443 65.264 21.948 65.663 C 21.454 66.062 21.098 66.608 20.933 67.221 C 20.768 67.835 20.802 68.486 21.03 69.079 C 21.258 69.672 21.668 70.178 22.202 70.524 C 22.736 70.869 23.365 71.036 24 71.001 L 47.844 71.001 C 48.242 72.399 48.785 73.73 49.438 75.001 L 24 75.001 C 23.896 74.996 23.791 74.996 23.687 75.001 C 23.052 75.032 22.443 75.264 21.948 75.663 C 21.454 76.062 21.098 76.608 20.933 77.221 C 20.768 77.835 20.802 78.486 21.03 79.079 C 21.258 79.672 21.668 80.178 22.202 80.524 C 22.736 80.869 23.365 81.036 24 81.001 L 53.938 81.001 C 57.88 84.715 63.18 87.001 69.001 87.001 L 69.001 89.001 L 15.001 89.001 L 15.001 32.535 L 51.751 22.879 C 52.33 22.723 52.849 22.398 53.241 21.944 C 53.632 21.491 53.88 20.931 53.95 20.335 C 54.021 19.74 53.912 19.138 53.637 18.605 C 53.362 18.073 52.933 17.635 52.407 17.348 C 49.652 15.868 47.518 15.294 46.594 14.567 C 45.852 13.983 45.293 13.319 45.094 11.005 Z M 39.5 13.535 C 40.097 15.999 41.202 17.848 42.688 19.097 L 25.906 23.503 L 39.5 13.535 Z M 23.688 35.003 C 23.047 35.025 22.43 35.252 21.927 35.65 C 21.424 36.049 21.062 36.598 20.894 37.217 C 20.725 37.835 20.759 38.492 20.991 39.09 C 21.223 39.688 21.64 40.197 22.181 40.541 C 22.723 40.885 23.36 41.046 24 41.002 L 60 41.002 C 60.795 41.002 61.559 40.686 62.121 40.123 C 62.684 39.561 63 38.797 63 38.002 C 63 37.207 62.684 36.443 62.121 35.881 C 61.559 35.318 60.795 35.002 60 35.002 L 24 35.002 C 23.896 34.997 23.791 34.997 23.687 35.002 Z M 69 49.002 C 77.872 49.002 85 56.13 85 65.001 C 85 73.873 77.872 81 69 81 C 60.128 81 53 73.872 53 65.001 C 53 56.129 60.128 49.002 69 49.002 Z M 68.969 50.94 C 68.439 50.945 67.92 51.091 67.464 51.362 C 67.009 51.634 66.633 52.021 66.376 52.485 C 66.119 52.948 65.989 53.472 66 54.002 L 66 54.315 C 63.087 55.227 61 58.042 61 61.002 C 61 65.007 64.8 68.002 69 68.002 C 70.835 68.002 71 68.575 71 69.002 C 71 69.83 71.013 70.002 70 70.002 L 64 70.002 C 63.205 70.002 62.441 70.318 61.879 70.881 C 61.316 71.443 61 72.207 61 73.002 C 61 73.797 61.316 74.561 61.879 75.123 C 62.441 75.686 63.205 76.002 64 76.002 L 66 76.002 C 66 76.797 66.316 77.561 66.879 78.123 C 67.441 78.686 68.205 79.002 69 79.002 C 69.795 79.002 70.559 78.686 71.121 78.123 C 71.684 77.561 72 76.797 72 76.002 L 72 75.721 C 74.913 74.809 77 71.963 77 69.003 C 77 64.998 73.2 62.003 69 62.003 C 67.165 62.003 67 61.43 67 61.003 C 67 60.175 66.987 60.003 68 60.003 L 74 60.003 C 74.795 60.003 75.559 59.687 76.121 59.124 C 76.684 58.562 77 57.798 77 57.003 C 77 56.208 76.684 55.444 76.121 54.882 C 75.559 54.319 74.795 54.003 74 54.003 L 72 54.003 C 72.011 53.466 71.878 52.936 71.614 52.468 C 71.35 52 70.966 51.611 70.5 51.343 C 70.035 51.074 69.506 50.935 68.969 50.941 Z"
        fill="#939598"
        stroke="#00000000"/>
</svg>
