<svg
    xmlns="http://www.w3.org/2000/svg"
    viewBox="0 0 48 48"
    id="vector">
    <path
        id="path"
        d="M 46.8 10.8 L 29.8 10.8 L 29.8 3 C 29.8 1.3 28.5 0 26.8 0 L 3 0 C 1.3 0 0 1.3 0 3 L 0 45 C 0 46.7 1.3 48 3 48 L 26.8 48 C 28.5 48 29.8 46.7 29.8 45 L 29.8 35.6 L 46.8 35.6 C 47.4 35.6 48 35.1 48 34.4 L 48 11.9 C 48 11.3 47.5 10.8 46.8 10.8 Z M 13.5 2 L 16.3 2 C 16.9 2 17.3 2.4 17.3 3 C 17.3 3.6 16.9 4 16.3 4 L 13.5 4 C 12.9 4 12.5 3.6 12.5 3 C 12.5 2.4 13 2 13.5 2 Z M 14.9 46.1 C 13.9 46.1 13 45.3 13 44.2 C 13 43.2 13.8 42.3 14.9 42.3 C 15.9 42.3 16.8 43.1 16.8 44.2 C 16.8 45.2 16 46.1 14.9 46.1 Z M 25.8 40.1 L 4 40.1 L 4 6.3 L 25.8 6.3 L 25.8 10.8 L 12.2 10.8 C 11.6 10.8 11 11.3 11 12 L 11 34.5 C 11 35.1 11.5 35.7 12.2 35.7 L 25.8 35.7 L 25.8 40.1 Z M 45.7 33.3 L 13.4 33.3 L 13.4 13.1 L 45.7 13.1 L 45.7 33.3 Z"
        fill="#939598"/>
    <path
        id="path_1"
        d="M 15.3 28.4 L 20.7 28.4 L 20.7 30.7 L 15.3 30.7 Z"
        fill="#939598"/>
    <path
        id="path_2"
        d="M 23 28.4 L 28.4 28.4 L 28.4 30.7 L 23 30.7 Z"
        fill="#939598"/>
    <path
        id="path_3"
        d="M 30.7 28.4 L 36.1 28.4 L 36.1 30.7 L 30.7 30.7 Z"
        fill="#939598"/>
    <path
        id="path_4"
        d="M 38.4 28.4 L 43.8 28.4 L 43.8 30.7 L 38.4 30.7 Z"
        fill="#939598"/>
    <path
        id="path_5"
        d="M 15.3 15.7 L 21 15.7 L 21 21.4 L 15.3 21.4 Z"
        fill="#939598"/>
    <path
        id="path_6"
        d="M 36.4 21.8 C 37.1 21.8 37.8 21.5 38.3 21.1 C 38.8 21.5 39.5 21.8 40.2 21.8 C 41.9 21.8 43.3 20.4 43.3 18.7 C 43.3 17 41.9 15.6 40.2 15.6 C 39.5 15.6 38.8 15.9 38.3 16.3 C 37.8 15.9 37.1 15.6 36.4 15.6 C 34.7 15.6 33.3 17 33.3 18.7 C 33.4 20.4 34.7 21.8 36.4 21.8 Z"
        fill="#939598"/>
</svg>
