<svg
    xmlns="http://www.w3.org/2000/svg"
    viewBox="0 0 64 64"
    id="vector">
    <path
        id="path"
        d="M 22.2 25.8 C 24 23 26.9 21 30.3 20.5 L 30.3 0.9 C 18.7 1.5 8.8 8.5 4 18.4 L 22.2 25.8 Z"
        fill="#939598"/>
    <path
        id="path_1"
        d="M 20.4 32 C 20.4 31 20.5 29.9 20.8 29 L 2.7 21.5 C 1.5 24.8 0.9 28.3 0.9 32 C 0.9 41 4.7 49 10.7 54.7 L 23 39.3 C 21.4 37.3 20.4 34.7 20.4 32 Z M 10.5 49.4 C 6.5 44.5 4.3 38.4 4.3 31.9 C 4.3 29.9 4.5 28 4.9 26.1 L 17 31.1 C 17 31.4 17 31.7 17 32 C 17 34.5 17.6 36.9 18.8 39.1 L 10.5 49.4 Z"
        fill="#939598"/>
    <path
        id="path_2"
        d="M 33.7 0.9 L 33.7 20.5 C 39.3 21.3 43.6 26.1 43.6 32 C 43.6 38.4 38.4 43.6 32 43.6 C 29.6 43.6 27.4 42.9 25.5 41.6 L 13.3 56.9 C 18.5 60.8 25 63.1 32 63.1 C 49.2 63.1 63.1 49.2 63.1 32 C 63.1 15.4 50.1 1.8 33.7 0.9 Z"
        fill="#939598"/>
</svg>
