<svg
    xmlns="http://www.w3.org/2000/svg"
    viewBox="0 0 100 100"
    id="vector">
    <path
        id="path"
        d="M 94.176 26.952 L 67.285 5.441 C 66.225 4.592 65.366 5.004 65.366 6.363 L 65.366 17.426 L 18.656 17.426 C 17.298 17.426 16.198 18.527 16.198 19.885 L 16.198 37.094 C 16.198 38.451 17.299 39.552 18.656 39.552 L 65.366 39.552 L 65.366 50.615 C 65.366 51.973 66.225 52.386 67.285 51.537 L 94.176 30.026 C 95.236 29.177 95.236 27.801 94.176 26.952 Z"
        fill="#939598"/>
    <path
        id="path_1"
        d="M 34.635 93.637 L 34.635 82.574 L 81.345 82.574 C 82.703 82.574 83.803 81.473 83.803 80.115 L 83.803 62.906 C 83.803 61.549 82.702 60.448 81.345 60.448 L 34.635 60.448 L 34.635 49.386 C 34.635 48.028 33.776 47.615 32.716 48.464 L 5.824 69.975 C 4.764 70.824 4.764 72.2 5.824 73.048 L 32.715 94.559 C 33.775 95.407 34.635 94.995 34.635 93.637 Z"
        fill="#939598"/>
</svg>
