<?xml version="1.0" standalone="no"?>
<!DOCTYPE svg PUBLIC "-//W3C//DTD SVG 20010904//EN"
 "http://www.w3.org/TR/2001/REC-SVG-20010904/DTD/svg10.dtd">
<svg version="1.0" xmlns="http://www.w3.org/2000/svg"
 width="700.000000pt" height="700.000000pt" viewBox="0 0 700.000000 700.000000"
 preserveAspectRatio="xMidYMid meet">
<metadata>
Created by potrace 1.11, written by Peter Selinger 2001-2013
</metadata>
<g transform="translate(0.000000,700.000000) scale(0.100000,-0.100000)"
fill="#000000" stroke="none">
<path d="M2490 6950 c-51 -7 -88 -37 -99 -79 -15 -57 -13 -2181 2 -2182 7 -1
435 -3 952 -4 517 -2 952 -5 967 -8 120 -19 267 -126 321 -232 26 -52 48 -121
52 -165 2 -14 3 -448 4 -965 l1 -940 1093 0 c1023 0 1095 1 1120 18 61 40 57
-117 57 2109 0 2223 3 2100 -58 2212 -64 120 -201 214 -337 233 -50 7 -4027
10 -4075 3z"/>
<path d="M142 4673 c-39 -13 -58 -35 -69 -83 -10 -40 -9 -2323 0 -2415 4 -33
9 -85 13 -115 8 -77 50 -269 80 -370 83 -274 222 -538 402 -765 77 -98 282
-300 377 -373 44 -34 85 -65 90 -70 43 -35 232 -144 330 -192 216 -104 434
-171 670 -205 22 -4 51 -9 65 -13 14 -3 573 -7 1242 -9 1083 -4 1222 -2 1251
12 66 31 62 -54 63 1180 l2 1120 -962 1 c-887 0 -966 2 -1020 18 -176 52 -306
198 -334 371 -3 22 -5 463 -5 980 l1 940 -1081 0 c-793 0 -1090 -3 -1115 -12z"/>
</g>
</svg>
