<?xml version="1.0" standalone="no"?>
<!DOCTYPE svg PUBLIC "-//W3C//DTD SVG 20010904//EN"
 "http://www.w3.org/TR/2001/REC-SVG-20010904/DTD/svg10.dtd">
<svg version="1.0" xmlns="http://www.w3.org/2000/svg"
 width="700.000000pt" height="700.000000pt" viewBox="0 0 700.000000 700.000000"
 preserveAspectRatio="xMidYMid meet">
<metadata>
Created by potrace 1.11, written by Peter Selinger 2001-2013
</metadata>
<g transform="translate(0.000000,700.000000) scale(0.100000,-0.100000)"
fill="#000000" stroke="none">
<path d="M3298 6996 c-1 -2 -46 -6 -98 -10 -52 -3 -104 -8 -115 -10 -11 -2
-42 -7 -70 -10 -48 -6 -132 -21 -185 -31 -14 -3 -38 -8 -55 -10 -59 -11 -292
-74 -385 -105 -211 -71 -461 -183 -640 -288 -80 -46 -280 -176 -314 -203 -271
-217 -282 -226 -442 -389 -500 -510 -836 -1176 -948 -1875 -2 -16 -8 -50 -12
-75 -27 -173 -39 -614 -21 -785 14 -134 19 -174 33 -260 8 -49 17 -103 20
-120 3 -16 7 -38 10 -47 3 -9 7 -26 9 -37 8 -41 65 -248 89 -321 108 -333 262
-637 481 -950 39 -54 75 -99 80 -99 24 1 335 416 335 448 0 6 4 11 9 11 18 0
237 350 368 590 38 68 174 339 201 400 11 25 39 86 62 135 23 50 50 111 60
136 10 26 28 66 39 90 22 49 121 314 121 324 0 4 7 21 15 38 50 109 220 672
309 1022 66 263 156 694 181 870 3 22 8 46 11 54 2 7 7 34 10 60 3 25 9 64 13
86 5 22 8 228 7 458 0 231 2 424 6 430 5 8 296 11 1010 12 552 0 1010 -1 1018
-3 13 -3 15 -57 15 -430 -1 -396 1 -436 21 -557 13 -71 25 -143 27 -160 40
-254 161 -794 251 -1115 68 -243 78 -276 122 -415 45 -142 62 -192 152 -435
180 -487 414 -964 686 -1400 115 -184 341 -495 439 -605 20 -22 37 -44 37 -49
0 -23 200 266 279 404 55 96 177 352 216 450 87 222 165 503 199 720 30 189
39 307 40 530 1 275 -8 409 -40 590 -2 14 -7 41 -10 60 -11 74 -56 263 -80
342 -14 46 -29 97 -33 113 -25 100 -138 369 -229 545 -103 198 -293 484 -417
625 -14 17 -40 46 -57 65 -245 280 -562 538 -908 737 -164 94 -429 212 -600
268 -30 10 -71 23 -90 30 -50 18 -261 71 -355 89 -70 13 -185 31 -345 52 -47
6 -525 15 -532 10z"/>
<path d="M2728 6335 c4 -5 40 -41 81 -80 41 -38 90 -85 109 -102 18 -18 38
-33 43 -33 5 0 51 40 102 89 50 49 103 99 116 110 13 12 22 22 20 22 -2 1
-110 2 -241 3 -155 1 -234 -2 -230 -9z"/>
<path d="M3275 6341 c-4 -4 7 -15 137 -139 47 -45 91 -82 95 -82 5 0 32 21 60
48 27 26 80 75 117 110 36 34 63 62 59 63 -23 3 -465 3 -468 0z"/>
<path d="M3820 6340 c0 -3 28 -32 63 -64 34 -32 87 -83 117 -112 l55 -53 123
117 123 117 -240 0 c-133 0 -241 -2 -241 -5z"/>
<path d="M2669 6284 c-4 -67 -3 -444 1 -444 11 1 240 219 240 229 0 5 -52 57
-115 117 -64 59 -118 110 -120 113 -3 2 -6 -4 -6 -15z"/>
<path d="M4295 6264 c-22 -20 -78 -72 -124 -117 l-83 -80 53 -50 c30 -27 84
-77 120 -113 36 -35 68 -64 70 -64 2 0 4 103 4 230 0 126 0 230 0 230 0 0 -18
-17 -40 -36z"/>
<path d="M3120 6179 l-115 -109 114 -110 114 -110 61 57 c34 31 86 81 116 110
l55 53 -60 56 c-33 31 -85 80 -115 109 l-56 53 -114 -109z"/>
<path d="M3658 6171 l-107 -106 82 -76 c45 -42 98 -90 117 -106 l35 -31 114
109 114 108 -49 46 c-152 144 -175 165 -187 164 -6 -1 -60 -49 -119 -108z"/>
<path d="M3479 6021 c-14 -14 -67 -65 -117 -113 -51 -48 -92 -89 -92 -91 0 -3
109 -5 242 -5 l242 0 -74 72 c-41 39 -97 92 -125 117 l-50 45 -26 -25z"/>
<path d="M2898 5988 c-118 -111 -153 -145 -166 -160 -12 -15 9 -16 230 -17
l243 0 -118 115 c-64 63 -121 114 -125 114 -4 0 -33 -24 -64 -52z"/>
<path d="M3927 5926 l-118 -114 248 0 247 -1 -76 72 c-142 135 -167 157 -175
157 -4 -1 -61 -52 -126 -114z"/>
<path d="M2764 5618 c-2 -3 0 -8 5 -10 5 -1 78 -69 162 -149 85 -81 170 -162
190 -180 20 -19 99 -93 175 -165 77 -72 152 -143 168 -158 l29 -26 25 22 c31
29 45 42 218 205 76 72 157 148 179 169 212 198 304 288 300 293 -8 8 -1446 7
-1451 -1z"/>
<path d="M4235 5372 c-50 -48 -156 -148 -235 -222 -79 -74 -179 -169 -223
-210 -43 -41 -97 -91 -119 -111 l-40 -37 25 -23 c24 -24 269 -256 342 -324 22
-21 107 -101 188 -179 82 -77 152 -142 156 -144 3 -1 6 299 6 668 0 368 -2
670 -5 670 -3 0 -46 -40 -95 -88z"/>
<path d="M2666 4803 c1 -351 2 -644 3 -652 1 -9 14 -1 34 20 19 19 94 90 167
159 73 69 154 145 180 170 26 25 104 99 174 164 118 111 140 139 117 148 -6 2
-74 64 -152 138 -78 74 -150 142 -160 151 -10 8 -86 80 -169 159 -133 126
-191 180 -194 180 -1 0 0 -287 0 -637z"/>
<path d="M4525 2481 l0 -2329 45 14 c25 7 84 28 133 45 l87 31 0 1723 0 1723
-36 124 c-43 150 -116 444 -138 553 -20 100 -21 104 -40 195 -17 85 -22 114
-32 179 -4 25 -9 51 -13 58 -3 6 -6 -1036 -6 -2316z"/>
<path d="M2462 4783 c1 -24 -26 -188 -56 -338 -9 -44 -18 -91 -20 -105 -2 -14
-12 -56 -21 -95 -9 -38 -19 -81 -21 -95 -7 -38 -91 -365 -114 -445 -20 -69
-20 -92 -20 -1762 l0 -1692 48 -21 c38 -17 208 -80 216 -80 1 0 2 1046 2 2325
0 1279 -3 2325 -7 2325 -4 0 -7 -8 -7 -17z"/>
<path d="M3472 4642 c-11 -10 -85 -79 -164 -154 -79 -75 -163 -155 -188 -178
-25 -23 -108 -102 -185 -175 -77 -72 -160 -150 -185 -173 l-44 -41 30 -28 c16
-15 102 -96 190 -179 87 -83 175 -166 194 -184 19 -18 96 -90 170 -160 74 -70
151 -142 170 -158 39 -35 28 -39 120 48 26 25 109 104 186 175 76 72 181 171
233 220 52 50 102 97 111 105 9 8 51 48 92 88 l76 72 -62 59 c-33 33 -81 79
-106 102 -205 192 -499 470 -555 524 -59 56 -60 57 -83 37z"/>
<path d="M4244 3642 c-71 -69 -191 -182 -463 -438 -46 -43 -101 -95 -122 -114
l-39 -35 23 -25 c21 -22 241 -231 337 -320 19 -18 103 -97 185 -175 83 -79
154 -145 160 -147 10 -3 15 1321 5 1327 -3 2 -41 -31 -86 -73z"/>
<path d="M2669 3694 c-1 -5 -2 -298 -3 -651 -1 -635 -1 -641 18 -625 30 25
154 142 376 351 80 76 178 168 218 206 68 64 84 89 63 97 -8 2 -183 165 -306
283 -12 11 -61 58 -111 104 -49 47 -126 120 -171 164 -46 44 -84 76 -84 71z"/>
<path d="M2045 3183 c-26 -71 -85 -215 -131 -321 l-84 -193 0 -1124 0 -1123
98 -50 c53 -28 113 -57 133 -65 l36 -15 0 1509 c0 830 -1 1509 -2 1509 -1 0
-24 -57 -50 -127z"/>
<path d="M4909 3299 c-2 -6 -4 -2969 -2 -2969 1 0 55 26 185 88 l77 37 1 1111
c0 1067 -1 1112 -19 1150 -42 88 -141 327 -186 449 -45 124 -53 143 -56 134z"/>
<path d="M3420 2853 c-40 -37 -89 -83 -109 -102 -34 -32 -297 -281 -366 -346
-18 -16 -80 -75 -138 -130 l-107 -99 44 -41 c51 -46 299 -281 430 -406 50 -48
107 -101 126 -119 19 -18 71 -66 114 -107 l79 -74 41 38 c22 21 77 72 121 114
44 42 92 87 106 100 15 13 89 83 165 155 77 72 155 146 174 164 65 60 180 172
180 176 0 5 -34 37 -211 204 -73 69 -149 141 -169 160 -21 19 -97 91 -170 160
-74 69 -148 139 -165 155 -77 74 -64 74 -145 -2z"/>
<path d="M1646 2338 c-37 -68 -78 -141 -91 -163 -71 -115 -65 -33 -65 -839 l0
-725 102 -66 c56 -37 107 -69 113 -72 9 -3 12 248 12 992 0 547 -1 995 -2 995
-1 0 -32 -55 -69 -122z"/>
<path d="M5284 1470 c0 -539 2 -980 5 -979 3 0 26 13 51 29 25 16 73 45 108
66 l62 37 0 727 0 726 -53 85 c-29 46 -79 130 -111 187 -32 56 -59 102 -60
102 -1 0 -2 -441 -2 -980z"/>
<path d="M4244 1892 c-95 -91 -216 -205 -419 -397 -82 -77 -161 -152 -177
-167 l-29 -28 83 -79 c46 -43 95 -89 109 -102 34 -31 294 -277 418 -396 53
-50 98 -89 101 -86 6 6 7 1324 0 1328 -3 2 -42 -31 -86 -73z"/>
<path d="M2666 1301 c1 -355 2 -648 3 -650 1 -2 36 30 79 71 42 42 100 96 127
122 215 203 320 302 394 373 l86 83 -91 87 c-50 49 -158 151 -240 228 -81 77
-188 178 -236 224 -49 46 -96 90 -106 96 -16 12 -17 -22 -16 -634z"/>
<path d="M5589 1949 c-5 -20 -2 -1262 2 -1265 7 -4 203 149 215 168 5 7 9 184
9 393 l0 380 -42 60 c-23 33 -74 107 -113 164 -38 57 -70 102 -71 100z"/>
<path d="M1383 1882 c-11 -20 -69 -102 -127 -182 l-106 -145 0 -326 0 -327
119 -98 c66 -53 126 -101 133 -105 11 -6 13 101 13 601 0 335 -3 611 -5 614
-3 2 -15 -12 -27 -32z"/>
<path d="M5850 1232 c0 -183 3 -332 6 -332 3 0 55 50 115 110 l109 110 0 88
c0 86 -1 88 -33 122 -18 19 -69 78 -112 130 -42 52 -79 97 -81 99 -2 2 -4
-145 -4 -327z"/>
<path d="M1047 1422 c-9 -15 -41 -54 -71 -87 -55 -60 -55 -60 -56 -125 l0 -66
75 -74 c41 -41 75 -70 76 -65 3 55 1 437 -3 440 -2 2 -12 -8 -21 -23z"/>
<path d="M3474 1157 c-9 -10 -192 -184 -319 -302 -42 -40 -274 -259 -409 -386
l-80 -77 0 -141 c0 -77 3 -143 7 -147 3 -4 23 -10 44 -14 123 -26 257 -49 309
-55 32 -4 66 -9 75 -10 138 -26 612 -26 807 1 202 27 365 56 407 73 19 8 20
17 20 140 l-1 132 -40 36 c-21 20 -108 102 -193 182 -666 630 -613 582 -627
568z"/>
</g>
</svg>
