<svg xmlns="http://www.w3.org/2000/svg" xmlns:xlink="http://www.w3.org/1999/xlink" version="1.1" x="0px" y="0px" viewBox="0 0 512 512" enable-background="new 0 0 512 512" xml:space="preserve"><g><path d="M237.7,329c-32.4-8.4-56.4-37.6-56.4-72.5c0-41.5,33.7-75.2,75.2-75.2c13.9,0,26.8,4,38,10.7l81-81   C343,84.5,301.6,68.5,256.5,68.5c-103.8,0-188,84.2-188,188c0,97.4,74.2,177.6,169.2,187V329z"></path><path d="M402,137.6l-81,81c3.5,5.9,6.2,12.3,8,19.2h114.5C439.7,199.9,424.8,165.4,402,137.6z"></path><path d="M329,275.3c-6.8,26.3-27.4,46.9-53.7,53.7v114.5c88.7-8.8,159.4-79.5,168.2-168.2H329z"></path></g></svg>