<svg xmlns="http://www.w3.org/2000/svg" xmlns:xlink="http://www.w3.org/1999/xlink" version="1.1" x="0px" y="0px" viewBox="0 0 48 48" enable-background="new 0 0 48 48" xml:space="preserve"><g><g><polygon fill="#000000" points="47,47 1,47 1,1 3,1 3,45 47,45   "></polygon></g><g><rect x="5" y="29.7" fill="#000000" width="24" height="8.4"></rect><rect x="31" y="29.7" fill="#000000" width="6" height="8.4"></rect><rect x="5" y="16.9" fill="#000000" width="32" height="8.4"></rect><rect x="39" y="16.9" fill="#000000" width="6" height="8.4"></rect><rect x="5" y="4" fill="#000000" width="19" height="8.4"></rect><rect x="26" y="4" fill="#000000" width="6" height="8.4"></rect></g><g><rect x="7.4" y="42" fill="#000000" width="2" height="4"></rect></g><g><rect x="13.9" y="42" fill="#000000" width="2" height="4"></rect></g><g><rect x="20.3" y="42" fill="#000000" width="2" height="4"></rect></g><g><rect x="26.7" y="42" fill="#000000" width="2" height="4"></rect></g><g><rect x="33.1" y="42" fill="#000000" width="2" height="4"></rect></g><g><rect x="39.6" y="42" fill="#000000" width="2" height="4"></rect></g></g></svg>